<?xml version="1.0" encoding="utf-8"?>
<!-- Generator: Adobe Illustrator 25.2.3, SVG Export Plug-In . SVG Version: 6.00 Build 0)  -->
<svg version="1.1" id="Layer_1" xmlns="http://www.w3.org/2000/svg" xmlns:xlink="http://www.w3.org/1999/xlink" x="0px" y="0px"
	 viewBox="0 0 500 500" style="enable-background:new 0 0 500 500;" xml:space="preserve">
<style type="text/css">
	.st0{fill:#4899D4;}
	.st1{fill:#FFFFFF;}
</style>
<path class="st0" d="M250,500L250,500C111.93,500,0,388.07,0,250v0C0,111.93,111.93,0,250,0h0c138.07,0,250,111.93,250,250v0
	C500,388.07,388.07,500,250,500z"/>
<g>
	<g>
		<path class="st1" d="M408.07,100.55H91.93c-11.11,0.01-20.11,9.01-20.12,20.12v212.68c0.01,11.11,9.01,20.11,20.12,20.12H208.5
			l-3.45,17.24h-24.03c-3.17,0-5.75,2.57-5.75,5.75v17.24c0,3.17,2.57,5.75,5.75,5.75h137.95c3.17,0,5.75-2.57,5.75-5.75v-17.24
			c0-3.17-2.57-5.75-5.75-5.75h-24.03l-3.45-17.24h116.57c11.11-0.01,20.11-9.01,20.12-20.12V120.67
			C428.18,109.56,419.18,100.56,408.07,100.55z M313.23,382.21v5.75H186.77v-5.75H313.23z M216.78,370.71l3.45-17.24h59.55
			l3.45,17.24H216.78z M416.7,333.35c0,4.76-3.86,8.62-8.62,8.62H91.93c-4.76,0-8.62-3.86-8.62-8.62v-14.37H416.7V333.35z
			 M416.7,307.48H83.3V120.67c0-4.76,3.86-8.62,8.62-8.62h316.15c4.76,0,8.62,3.86,8.62,8.62V307.48z"/>
		<path class="st1" d="M255.75,324.73h-11.5c-3.17,0-5.75,2.57-5.75,5.75s2.57,5.75,5.75,5.75h11.5c3.17,0,5.75-2.57,5.75-5.75
			S258.92,324.73,255.75,324.73z"/>
	</g>
</g>
</svg>
