<?xml version="1.0" encoding="utf-8"?>
<!-- Generator: Adobe Illustrator 25.2.3, SVG Export Plug-In . SVG Version: 6.00 Build 0)  -->
<svg version="1.1" id="Layer_1" xmlns="http://www.w3.org/2000/svg" xmlns:xlink="http://www.w3.org/1999/xlink" x="0px" y="0px"
	 viewBox="0 0 500 500" style="enable-background:new 0 0 500 500;" xml:space="preserve">
<style type="text/css">
	.st0{fill:#4899D4;}
	.st1{fill:#FFFFFF;}
</style>
<path class="st0" d="M250,500L250,500C111.93,500,0,388.07,0,250v0C0,111.93,111.93,0,250,0h0c138.07,0,250,111.93,250,250v0
	C500,388.07,388.07,500,250,500z"/>
<g>
	<g id="XMLID_323_">
		<g id="XMLID_1291_">
			<path id="XMLID_1351_" class="st1" d="M411.26,82.18H146.42c-3.62,0-6.56,2.93-6.56,6.56v28.84h-22.29
				c-3.62,0-6.56,2.94-6.56,6.56v35.4H88.74c-3.62,0-6.56,2.94-6.56,6.56v216.33c0,19.52,15.88,35.4,35.4,35.4h264.84
				c19.52,0,35.4-15.88,35.4-35.4V88.74C417.82,85.12,414.88,82.18,411.26,82.18z M404.71,382.42c0,12.29-10,22.29-22.29,22.29
				H145.06c4.95-6.09,7.92-13.85,7.92-22.29v-88.5c0-3.62-2.94-6.56-6.56-6.56s-6.56,2.94-6.56,6.56v88.5
				c0,12.29-10,22.29-22.29,22.29s-22.29-10-22.29-22.29V172.65h15.73v203.22c0,3.62,2.94,6.56,6.56,6.56s6.56-2.94,6.56-6.56
				V130.69h15.73v104.23c0,3.62,2.94,6.56,6.56,6.56s6.56-2.93,6.56-6.56V95.29h251.73V382.42z"/>
			<path id="XMLID_1376_" class="st1" d="M177.89,185.76H379.8c3.62,0,6.56-2.93,6.56-6.56V132c0-3.62-2.94-6.56-6.56-6.56H177.89
				c-3.62,0-6.56,2.94-6.56,6.56v47.2C171.33,182.82,174.27,185.76,177.89,185.76z M184.45,138.56h188.8v34.09h-188.8V138.56z"/>
			<path id="XMLID_1459_" class="st1" d="M177.89,343.09h100.95c3.62,0,6.56-2.94,6.56-6.56V210.67c0-3.62-2.94-6.56-6.56-6.56
				H177.89c-3.62,0-6.56,2.93-6.56,6.56v125.86C171.33,340.15,174.27,343.09,177.89,343.09z M184.45,217.22h87.84v112.75h-87.84
				V217.22z"/>
			<path id="XMLID_1460_" class="st1" d="M379.8,204.11h-69.49c-3.62,0-6.56,2.93-6.56,6.56c0,3.62,2.94,6.56,6.56,6.56h69.49
				c3.62,0,6.56-2.93,6.56-6.56C386.35,207.05,383.42,204.11,379.8,204.11z"/>
			<path id="XMLID_1476_" class="st1" d="M379.8,235.58h-69.49c-3.62,0-6.56,2.93-6.56,6.56s2.94,6.56,6.56,6.56h69.49
				c3.62,0,6.56-2.93,6.56-6.56S383.42,235.58,379.8,235.58z"/>
			<path id="XMLID_1533_" class="st1" d="M379.8,267.04h-69.49c-3.62,0-6.56,2.94-6.56,6.56s2.94,6.56,6.56,6.56h69.49
				c3.62,0,6.56-2.94,6.56-6.56S383.42,267.04,379.8,267.04z"/>
			<path id="XMLID_1535_" class="st1" d="M379.8,298.51h-69.49c-3.62,0-6.56,2.94-6.56,6.56s2.94,6.56,6.56,6.56h69.49
				c3.62,0,6.56-2.94,6.56-6.56S383.42,298.51,379.8,298.51z"/>
			<path id="XMLID_1545_" class="st1" d="M379.8,329.98h-69.49c-3.62,0-6.56,2.94-6.56,6.56s2.94,6.56,6.56,6.56h69.49
				c3.62,0,6.56-2.94,6.56-6.56S383.42,329.98,379.8,329.98z"/>
			<path id="XMLID_1550_" class="st1" d="M177.89,374.55H379.8c3.62,0,6.56-2.94,6.56-6.56s-2.94-6.56-6.56-6.56H177.89
				c-3.62,0-6.56,2.94-6.56,6.56S174.27,374.55,177.89,374.55z"/>
			<path id="XMLID_1572_" class="st1" d="M146.75,257.87c-1.72,0-3.42,0.7-4.63,1.92c-1.22,1.22-1.92,2.91-1.92,4.63
				c0,1.73,0.7,3.42,1.92,4.63c1.22,1.23,2.91,1.92,4.63,1.92s3.42-0.69,4.63-1.92c1.22-1.22,1.92-2.91,1.92-4.63
				c0-1.72-0.7-3.42-1.92-4.63C150.17,258.57,148.48,257.87,146.75,257.87z"/>
		</g>
	</g>
</g>
</svg>
