<?xml version="1.0" encoding="utf-8"?>
<!-- Generator: Adobe Illustrator 25.2.3, SVG Export Plug-In . SVG Version: 6.00 Build 0)  -->
<svg version="1.1" id="Layer_1" xmlns="http://www.w3.org/2000/svg" xmlns:xlink="http://www.w3.org/1999/xlink" x="0px" y="0px"
	 viewBox="0 0 500 500" style="enable-background:new 0 0 500 500;" xml:space="preserve">
<style type="text/css">
	.st0{fill:#4899D4;}
	.st1{fill:#FFFFFF;}
</style>
<path class="st0" d="M250,500L250,500C111.93,500,0,388.07,0,250v0C0,111.93,111.93,0,250,0h0c138.07,0,250,111.93,250,250v0
	C500,388.07,388.07,500,250,500z"/>
<path class="st1" d="M37.8,176.39l70.93-70.82l71.44,71.14l-25.08,25.18l-28.33-28.21l0.12,174.3c0,0,0.67,15.44,21.78,15.44
	s187.06,0,187.06,0l35.68,35.54h-227c0,0-52.29,1.09-52.29-43.36s-0.89-182.34-0.89-182.34l-28.32,28.26L37.8,176.39z"/>
<path class="st1" d="M462.2,323.61l-70.93,70.82l-71.44-71.14l25.08-25.18l28.33,28.21l-0.12-174.31c0,0-0.67-15.44-21.78-15.44
	c-21.11,0-187.06,0-187.06,0l-35.68-35.53h227c0,0,52.29-1.09,52.29,43.36s0.89,182.34,0.89,182.34l28.31-28.26L462.2,323.61z"/>
</svg>
